ISO-10303-21;
HEADER;
/* Generated by software containing ST-Developer
 * from STEP Tools, Inc. (www.steptools.com) 
 */
/* OPTION: using custom renumber hook */

FILE_DESCRIPTION(
/* description */ ('STEP AP242',
'CAx-IF Rec.Pracs.---Representation and Presentation of Product Manufa
cturing Information (PMI)---4.0---2014-10-13',
'CAx-IF Rec.Pracs.---3D Tessellated Geometry---0.4---2014-09-14','2;1'),

/* implementation_level */ '2;1');

FILE_NAME(
/* name */ '68c586281478f4facb390c33',
/* time_stamp */ '2025-09-13T14:56:42Z',
/* author */ (''),
/* organization */ (''),
/* preprocessor_version */ 'ST-DEVELOPER v20',
/* originating_system */ 'ONSHAPE BY PTC INC, 1.203',
/* authorisation */ '  ');

FILE_SCHEMA (('AP242_MANAGED_MODEL_BASED_3D_ENGINEERING_MIM_LF { 1 0 10303 442 1 1 4 }'));
ENDSEC;

DATA;
#10=SHAPE_REPRESENTATION_RELATIONSHIP('','',#596,#11);
#11=ADVANCED_BREP_SHAPE_REPRESENTATION('',(#594),#964);
#12=TOROIDAL_SURFACE('',#634,0.001,0.001);
#13=TOROIDAL_SURFACE('',#638,0.001,0.001);
#14=CYLINDRICAL_SURFACE('',#628,0.002);
#15=CYLINDRICAL_SURFACE('',#630,0.002);
#16=CYLINDRICAL_SURFACE('',#632,0.001);
#17=CYLINDRICAL_SURFACE('',#636,0.001);
#18=CYLINDRICAL_SURFACE('',#640,0.001);
#19=CIRCLE('',#599,0.001);
#20=CIRCLE('',#600,0.001);
#21=CIRCLE('',#603,0.002);
#22=CIRCLE('',#604,0.002);
#23=CIRCLE('',#609,0.001);
#24=CIRCLE('',#617,0.001);
#25=CIRCLE('',#629,0.002);
#26=CIRCLE('',#631,0.002);
#27=CIRCLE('',#633,0.001);
#28=CIRCLE('',#635,0.001);
#29=CIRCLE('',#637,0.001);
#30=CIRCLE('',#639,0.001);
#31=ORIENTED_EDGE('',*,*,#193,.F.);
#32=ORIENTED_EDGE('',*,*,#194,.T.);
#33=ORIENTED_EDGE('',*,*,#195,.T.);
#34=ORIENTED_EDGE('',*,*,#196,.T.);
#35=ORIENTED_EDGE('',*,*,#197,.T.);
#36=ORIENTED_EDGE('',*,*,#198,.T.);
#37=ORIENTED_EDGE('',*,*,#199,.F.);
#38=ORIENTED_EDGE('',*,*,#200,.F.);
#39=ORIENTED_EDGE('',*,*,#201,.F.);
#40=ORIENTED_EDGE('',*,*,#202,.F.);
#41=ORIENTED_EDGE('',*,*,#203,.F.);
#42=ORIENTED_EDGE('',*,*,#204,.F.);
#43=ORIENTED_EDGE('',*,*,#205,.F.);
#44=ORIENTED_EDGE('',*,*,#206,.F.);
#45=ORIENTED_EDGE('',*,*,#207,.T.);
#46=ORIENTED_EDGE('',*,*,#208,.T.);
#47=ORIENTED_EDGE('',*,*,#209,.F.);
#48=ORIENTED_EDGE('',*,*,#210,.F.);
#49=ORIENTED_EDGE('',*,*,#211,.F.);
#50=ORIENTED_EDGE('',*,*,#212,.T.);
#51=ORIENTED_EDGE('',*,*,#213,.F.);
#52=ORIENTED_EDGE('',*,*,#214,.F.);
#53=ORIENTED_EDGE('',*,*,#215,.F.);
#54=ORIENTED_EDGE('',*,*,#216,.T.);
#55=ORIENTED_EDGE('',*,*,#217,.F.);
#56=ORIENTED_EDGE('',*,*,#218,.F.);
#57=ORIENTED_EDGE('',*,*,#219,.F.);
#58=ORIENTED_EDGE('',*,*,#220,.F.);
#59=ORIENTED_EDGE('',*,*,#221,.T.);
#60=ORIENTED_EDGE('',*,*,#222,.F.);
#61=ORIENTED_EDGE('',*,*,#223,.T.);
#62=ORIENTED_EDGE('',*,*,#224,.T.);
#63=ORIENTED_EDGE('',*,*,#225,.F.);
#64=ORIENTED_EDGE('',*,*,#226,.T.);
#65=ORIENTED_EDGE('',*,*,#227,.T.);
#66=ORIENTED_EDGE('',*,*,#223,.F.);
#67=ORIENTED_EDGE('',*,*,#228,.T.);
#68=ORIENTED_EDGE('',*,*,#229,.T.);
#69=ORIENTED_EDGE('',*,*,#230,.T.);
#70=ORIENTED_EDGE('',*,*,#215,.T.);
#71=ORIENTED_EDGE('',*,*,#231,.T.);
#72=ORIENTED_EDGE('',*,*,#232,.T.);
#73=ORIENTED_EDGE('',*,*,#233,.T.);
#74=ORIENTED_EDGE('',*,*,#217,.T.);
#75=ORIENTED_EDGE('',*,*,#233,.F.);
#76=ORIENTED_EDGE('',*,*,#234,.T.);
#77=ORIENTED_EDGE('',*,*,#193,.T.);
#78=ORIENTED_EDGE('',*,*,#235,.T.);
#79=ORIENTED_EDGE('',*,*,#218,.T.);
#80=ORIENTED_EDGE('',*,*,#235,.F.);
#81=ORIENTED_EDGE('',*,*,#206,.T.);
#82=ORIENTED_EDGE('',*,*,#236,.T.);
#83=ORIENTED_EDGE('',*,*,#237,.F.);
#84=ORIENTED_EDGE('',*,*,#238,.T.);
#85=ORIENTED_EDGE('',*,*,#219,.T.);
#86=ORIENTED_EDGE('',*,*,#236,.F.);
#87=ORIENTED_EDGE('',*,*,#205,.T.);
#88=ORIENTED_EDGE('',*,*,#239,.T.);
#89=ORIENTED_EDGE('',*,*,#212,.F.);
#90=ORIENTED_EDGE('',*,*,#240,.F.);
#91=ORIENTED_EDGE('',*,*,#201,.T.);
#92=ORIENTED_EDGE('',*,*,#241,.T.);
#93=ORIENTED_EDGE('',*,*,#242,.T.);
#94=ORIENTED_EDGE('',*,*,#239,.F.);
#95=ORIENTED_EDGE('',*,*,#204,.T.);
#96=ORIENTED_EDGE('',*,*,#243,.T.);
#97=ORIENTED_EDGE('',*,*,#213,.T.);
#98=ORIENTED_EDGE('',*,*,#243,.F.);
#99=ORIENTED_EDGE('',*,*,#203,.T.);
#100=ORIENTED_EDGE('',*,*,#244,.T.);
#101=ORIENTED_EDGE('',*,*,#214,.T.);
#102=ORIENTED_EDGE('',*,*,#244,.F.);
#103=ORIENTED_EDGE('',*,*,#202,.T.);
#104=ORIENTED_EDGE('',*,*,#240,.T.);
#105=ORIENTED_EDGE('',*,*,#211,.T.);
#106=ORIENTED_EDGE('',*,*,#241,.F.);
#107=ORIENTED_EDGE('',*,*,#200,.T.);
#108=ORIENTED_EDGE('',*,*,#245,.T.);
#109=ORIENTED_EDGE('',*,*,#221,.F.);
#110=ORIENTED_EDGE('',*,*,#246,.F.);
#111=ORIENTED_EDGE('',*,*,#247,.T.);
#112=ORIENTED_EDGE('',*,*,#199,.T.);
#113=ORIENTED_EDGE('',*,*,#248,.T.);
#114=ORIENTED_EDGE('',*,*,#225,.T.);
#115=ORIENTED_EDGE('',*,*,#222,.T.);
#116=ORIENTED_EDGE('',*,*,#245,.F.);
#117=ORIENTED_EDGE('',*,*,#249,.T.);
#118=ORIENTED_EDGE('',*,*,#250,.T.);
#119=ORIENTED_EDGE('',*,*,#251,.F.);
#120=ORIENTED_EDGE('',*,*,#246,.T.);
#121=ORIENTED_EDGE('',*,*,#220,.T.);
#122=ORIENTED_EDGE('',*,*,#238,.F.);
#123=ORIENTED_EDGE('',*,*,#252,.F.);
#124=ORIENTED_EDGE('',*,*,#253,.F.);
#125=ORIENTED_EDGE('',*,*,#254,.T.);
#126=ORIENTED_EDGE('',*,*,#207,.F.);
#127=ORIENTED_EDGE('',*,*,#255,.F.);
#128=ORIENTED_EDGE('',*,*,#256,.F.);
#129=ORIENTED_EDGE('',*,*,#257,.T.);
#130=ORIENTED_EDGE('',*,*,#208,.F.);
#131=ORIENTED_EDGE('',*,*,#254,.F.);
#132=ORIENTED_EDGE('',*,*,#258,.F.);
#133=ORIENTED_EDGE('',*,*,#259,.T.);
#134=ORIENTED_EDGE('',*,*,#209,.T.);
#135=ORIENTED_EDGE('',*,*,#257,.F.);
#136=ORIENTED_EDGE('',*,*,#260,.T.);
#137=ORIENTED_EDGE('',*,*,#255,.T.);
#138=ORIENTED_EDGE('',*,*,#210,.T.);
#139=ORIENTED_EDGE('',*,*,#259,.F.);
#140=ORIENTED_EDGE('',*,*,#261,.T.);
#141=ORIENTED_EDGE('',*,*,#256,.T.);
#142=ORIENTED_EDGE('',*,*,#261,.F.);
#143=ORIENTED_EDGE('',*,*,#260,.F.);
#144=ORIENTED_EDGE('',*,*,#258,.T.);
#145=ORIENTED_EDGE('',*,*,#251,.T.);
#146=ORIENTED_EDGE('',*,*,#262,.F.);
#147=ORIENTED_EDGE('',*,*,#252,.T.);
#148=ORIENTED_EDGE('',*,*,#237,.T.);
#149=ORIENTED_EDGE('',*,*,#242,.F.);
#150=ORIENTED_EDGE('',*,*,#247,.F.);
#151=ORIENTED_EDGE('',*,*,#263,.T.);
#152=ORIENTED_EDGE('',*,*,#264,.F.);
#153=ORIENTED_EDGE('',*,*,#265,.F.);
#154=ORIENTED_EDGE('',*,*,#262,.T.);
#155=ORIENTED_EDGE('',*,*,#266,.T.);
#156=ORIENTED_EDGE('',*,*,#249,.F.);
#157=ORIENTED_EDGE('',*,*,#267,.F.);
#158=ORIENTED_EDGE('',*,*,#264,.T.);
#159=ORIENTED_EDGE('',*,*,#253,.T.);
#160=ORIENTED_EDGE('',*,*,#265,.T.);
#161=ORIENTED_EDGE('',*,*,#267,.T.);
#162=ORIENTED_EDGE('',*,*,#250,.F.);
#163=ORIENTED_EDGE('',*,*,#266,.F.);
#164=ORIENTED_EDGE('',*,*,#263,.F.);
#165=ORIENTED_EDGE('',*,*,#230,.F.);
#166=ORIENTED_EDGE('',*,*,#268,.T.);
#167=ORIENTED_EDGE('',*,*,#231,.F.);
#168=ORIENTED_EDGE('',*,*,#216,.F.);
#169=ORIENTED_EDGE('',*,*,#227,.F.);
#170=ORIENTED_EDGE('',*,*,#269,.T.);
#171=ORIENTED_EDGE('',*,*,#228,.F.);
#172=ORIENTED_EDGE('',*,*,#224,.F.);
#173=ORIENTED_EDGE('',*,*,#248,.F.);
#174=ORIENTED_EDGE('',*,*,#198,.F.);
#175=ORIENTED_EDGE('',*,*,#270,.F.);
#176=ORIENTED_EDGE('',*,*,#226,.F.);
#177=ORIENTED_EDGE('',*,*,#270,.T.);
#178=ORIENTED_EDGE('',*,*,#197,.F.);
#179=ORIENTED_EDGE('',*,*,#271,.F.);
#180=ORIENTED_EDGE('',*,*,#269,.F.);
#181=ORIENTED_EDGE('',*,*,#271,.T.);
#182=ORIENTED_EDGE('',*,*,#196,.F.);
#183=ORIENTED_EDGE('',*,*,#272,.F.);
#184=ORIENTED_EDGE('',*,*,#229,.F.);
#185=ORIENTED_EDGE('',*,*,#272,.T.);
#186=ORIENTED_EDGE('',*,*,#195,.F.);
#187=ORIENTED_EDGE('',*,*,#273,.F.);
#188=ORIENTED_EDGE('',*,*,#268,.F.);
#189=ORIENTED_EDGE('',*,*,#273,.T.);
#190=ORIENTED_EDGE('',*,*,#194,.F.);
#191=ORIENTED_EDGE('',*,*,#234,.F.);
#192=ORIENTED_EDGE('',*,*,#232,.F.);
#193=EDGE_CURVE('',#274,#275,#326,.T.);
#194=EDGE_CURVE('',#274,#276,#327,.F.);
#195=EDGE_CURVE('',#276,#277,#19,.F.);
#196=EDGE_CURVE('',#277,#278,#328,.F.);
#197=EDGE_CURVE('',#278,#279,#20,.F.);
#198=EDGE_CURVE('',#279,#280,#329,.T.);
#199=EDGE_CURVE('',#281,#280,#330,.T.);
#200=EDGE_CURVE('',#282,#281,#331,.T.);
#201=EDGE_CURVE('',#283,#282,#332,.T.);
#202=EDGE_CURVE('',#284,#283,#333,.T.);
#203=EDGE_CURVE('',#285,#284,#334,.T.);
#204=EDGE_CURVE('',#286,#285,#335,.T.);
#205=EDGE_CURVE('',#287,#286,#336,.T.);
#206=EDGE_CURVE('',#275,#287,#337,.T.);
#207=EDGE_CURVE('',#288,#289,#338,.T.);
#208=EDGE_CURVE('',#289,#290,#339,.T.);
#209=EDGE_CURVE('',#291,#290,#340,.T.);
#210=EDGE_CURVE('',#288,#291,#341,.T.);
#211=EDGE_CURVE('',#292,#293,#342,.T.);
#212=EDGE_CURVE('',#292,#294,#343,.T.);
#213=EDGE_CURVE('',#295,#294,#344,.T.);
#214=EDGE_CURVE('',#293,#295,#345,.T.);
#215=EDGE_CURVE('',#296,#297,#346,.T.);
#216=EDGE_CURVE('',#296,#298,#21,.F.);
#217=EDGE_CURVE('',#299,#298,#347,.T.);
#218=EDGE_CURVE('',#300,#299,#348,.T.);
#219=EDGE_CURVE('',#301,#300,#349,.T.);
#220=EDGE_CURVE('',#302,#301,#350,.T.);
#221=EDGE_CURVE('',#302,#303,#351,.T.);
#222=EDGE_CURVE('',#304,#303,#352,.T.);
#223=EDGE_CURVE('',#304,#305,#353,.T.);
#224=EDGE_CURVE('',#305,#297,#22,.F.);
#225=EDGE_CURVE('',#306,#304,#354,.T.);
#226=EDGE_CURVE('',#306,#307,#355,.F.);
#227=EDGE_CURVE('',#307,#305,#356,.T.);
#228=EDGE_CURVE('',#297,#308,#357,.F.);
#229=EDGE_CURVE('',#308,#309,#358,.T.);
#230=EDGE_CURVE('',#309,#296,#359,.T.);
#231=EDGE_CURVE('',#298,#310,#360,.F.);
#232=EDGE_CURVE('',#310,#311,#361,.T.);
#233=EDGE_CURVE('',#311,#299,#362,.T.);
#234=EDGE_CURVE('',#311,#274,#23,.F.);
#235=EDGE_CURVE('',#275,#300,#363,.T.);
#236=EDGE_CURVE('',#287,#312,#364,.T.);
#237=EDGE_CURVE('',#313,#312,#365,.T.);
#238=EDGE_CURVE('',#313,#301,#366,.T.);
#239=EDGE_CURVE('',#286,#294,#367,.T.);
#240=EDGE_CURVE('',#283,#292,#368,.T.);
#241=EDGE_CURVE('',#282,#314,#369,.T.);
#242=EDGE_CURVE('',#314,#312,#370,.T.);
#243=EDGE_CURVE('',#285,#295,#371,.T.);
#244=EDGE_CURVE('',#284,#293,#372,.T.);
#245=EDGE_CURVE('',#281,#303,#373,.T.);
#246=EDGE_CURVE('',#315,#302,#374,.T.);
#247=EDGE_CURVE('',#315,#314,#375,.T.);
#248=EDGE_CURVE('',#280,#306,#24,.F.);
#249=EDGE_CURVE('',#316,#317,#376,.T.);
#250=EDGE_CURVE('',#317,#318,#377,.T.);
#251=EDGE_CURVE('',#315,#318,#378,.T.);
#252=EDGE_CURVE('',#319,#313,#379,.T.);
#253=EDGE_CURVE('',#316,#319,#380,.T.);
#254=EDGE_CURVE('',#320,#289,#381,.T.);
#255=EDGE_CURVE('',#321,#288,#382,.T.);
#256=EDGE_CURVE('',#320,#321,#383,.T.);
#257=EDGE_CURVE('',#322,#290,#384,.T.);
#258=EDGE_CURVE('',#322,#320,#385,.T.);
#259=EDGE_CURVE('',#323,#291,#386,.T.);
#260=EDGE_CURVE('',#322,#323,#387,.T.);
#261=EDGE_CURVE('',#323,#321,#388,.T.);
#262=EDGE_CURVE('',#319,#318,#389,.T.);
#263=EDGE_CURVE('',#318,#324,#390,.T.);
#264=EDGE_CURVE('',#325,#324,#391,.T.);
#265=EDGE_CURVE('',#319,#325,#392,.T.);
#266=EDGE_CURVE('',#324,#317,#393,.T.);
#267=EDGE_CURVE('',#325,#316,#394,.T.);
#268=EDGE_CURVE('',#309,#310,#25,.T.);
#269=EDGE_CURVE('',#307,#308,#26,.T.);
#270=EDGE_CURVE('',#307,#279,#27,.T.);
#271=EDGE_CURVE('',#308,#278,#28,.T.);
#272=EDGE_CURVE('',#309,#277,#29,.T.);
#273=EDGE_CURVE('',#310,#276,#30,.T.);
#274=VERTEX_POINT('',#801);
#275=VERTEX_POINT('',#802);
#276=VERTEX_POINT('',#804);
#277=VERTEX_POINT('',#806);
#278=VERTEX_POINT('',#808);
#279=VERTEX_POINT('',#810);
#280=VERTEX_POINT('',#812);
#281=VERTEX_POINT('',#814);
#282=VERTEX_POINT('',#816);
#283=VERTEX_POINT('',#818);
#284=VERTEX_POINT('',#820);
#285=VERTEX_POINT('',#822);
#286=VERTEX_POINT('',#824);
#287=VERTEX_POINT('',#826);
#288=VERTEX_POINT('',#829);
#289=VERTEX_POINT('',#830);
#290=VERTEX_POINT('',#832);
#291=VERTEX_POINT('',#834);
#292=VERTEX_POINT('',#838);
#293=VERTEX_POINT('',#839);
#294=VERTEX_POINT('',#841);
#295=VERTEX_POINT('',#843);
#296=VERTEX_POINT('',#847);
#297=VERTEX_POINT('',#848);
#298=VERTEX_POINT('',#850);
#299=VERTEX_POINT('',#852);
#300=VERTEX_POINT('',#854);
#301=VERTEX_POINT('',#856);
#302=VERTEX_POINT('',#858);
#303=VERTEX_POINT('',#860);
#304=VERTEX_POINT('',#862);
#305=VERTEX_POINT('',#864);
#306=VERTEX_POINT('',#868);
#307=VERTEX_POINT('',#870);
#308=VERTEX_POINT('',#874);
#309=VERTEX_POINT('',#876);
#310=VERTEX_POINT('',#880);
#311=VERTEX_POINT('',#882);
#312=VERTEX_POINT('',#889);
#313=VERTEX_POINT('',#891);
#314=VERTEX_POINT('',#897);
#315=VERTEX_POINT('',#907);
#316=VERTEX_POINT('',#913);
#317=VERTEX_POINT('',#914);
#318=VERTEX_POINT('',#916);
#319=VERTEX_POINT('',#919);
#320=VERTEX_POINT('',#923);
#321=VERTEX_POINT('',#925);
#322=VERTEX_POINT('',#929);
#323=VERTEX_POINT('',#933);
#324=VERTEX_POINT('',#941);
#325=VERTEX_POINT('',#943);
#326=LINE('',#800,#395);
#327=LINE('',#803,#396);
#328=LINE('',#807,#397);
#329=LINE('',#811,#398);
#330=LINE('',#813,#399);
#331=LINE('',#815,#400);
#332=LINE('',#817,#401);
#333=LINE('',#819,#402);
#334=LINE('',#821,#403);
#335=LINE('',#823,#404);
#336=LINE('',#825,#405);
#337=LINE('',#827,#406);
#338=LINE('',#828,#407);
#339=LINE('',#831,#408);
#340=LINE('',#833,#409);
#341=LINE('',#835,#410);
#342=LINE('',#837,#411);
#343=LINE('',#840,#412);
#344=LINE('',#842,#413);
#345=LINE('',#844,#414);
#346=LINE('',#846,#415);
#347=LINE('',#851,#416);
#348=LINE('',#853,#417);
#349=LINE('',#855,#418);
#350=LINE('',#857,#419);
#351=LINE('',#859,#420);
#352=LINE('',#861,#421);
#353=LINE('',#863,#422);
#354=LINE('',#867,#423);
#355=LINE('',#869,#424);
#356=LINE('',#871,#425);
#357=LINE('',#873,#426);
#358=LINE('',#875,#427);
#359=LINE('',#877,#428);
#360=LINE('',#879,#429);
#361=LINE('',#881,#430);
#362=LINE('',#883,#431);
#363=LINE('',#886,#432);
#364=LINE('',#888,#433);
#365=LINE('',#890,#434);
#366=LINE('',#892,#435);
#367=LINE('',#894,#436);
#368=LINE('',#895,#437);
#369=LINE('',#896,#438);
#370=LINE('',#898,#439);
#371=LINE('',#900,#440);
#372=LINE('',#902,#441);
#373=LINE('',#905,#442);
#374=LINE('',#906,#443);
#375=LINE('',#908,#444);
#376=LINE('',#912,#445);
#377=LINE('',#915,#446);
#378=LINE('',#917,#447);
#379=LINE('',#918,#448);
#380=LINE('',#920,#449);
#381=LINE('',#922,#450);
#382=LINE('',#924,#451);
#383=LINE('',#926,#452);
#384=LINE('',#928,#453);
#385=LINE('',#930,#454);
#386=LINE('',#932,#455);
#387=LINE('',#934,#456);
#388=LINE('',#936,#457);
#389=LINE('',#938,#458);
#390=LINE('',#940,#459);
#391=LINE('',#942,#460);
#392=LINE('',#944,#461);
#393=LINE('',#946,#462);
#394=LINE('',#947,#463);
#395=VECTOR('',#645,1.);
#396=VECTOR('',#646,1.);
#397=VECTOR('',#649,1.);
#398=VECTOR('',#652,1.);
#399=VECTOR('',#653,1.);
#400=VECTOR('',#654,1.);
#401=VECTOR('',#655,1.);
#402=VECTOR('',#656,1.);
#403=VECTOR('',#657,1.);
#404=VECTOR('',#658,1.);
#405=VECTOR('',#659,1.);
#406=VECTOR('',#660,1.);
#407=VECTOR('',#661,1.);
#408=VECTOR('',#662,1.);
#409=VECTOR('',#663,1.);
#410=VECTOR('',#664,1.);
#411=VECTOR('',#667,1.);
#412=VECTOR('',#668,1.);
#413=VECTOR('',#669,1.);
#414=VECTOR('',#670,1.);
#415=VECTOR('',#673,1.);
#416=VECTOR('',#676,1.);
#417=VECTOR('',#677,1.);
#418=VECTOR('',#678,1.);
#419=VECTOR('',#679,1.);
#420=VECTOR('',#680,1.);
#421=VECTOR('',#681,1.);
#422=VECTOR('',#682,1.);
#423=VECTOR('',#687,1.);
#424=VECTOR('',#688,1.);
#425=VECTOR('',#689,1.);
#426=VECTOR('',#692,1.);
#427=VECTOR('',#693,1.);
#428=VECTOR('',#694,1.);
#429=VECTOR('',#697,1.);
#430=VECTOR('',#698,1.);
#431=VECTOR('',#699,1.);
#432=VECTOR('',#704,1.);
#433=VECTOR('',#707,1.);
#434=VECTOR('',#708,1.);
#435=VECTOR('',#709,1.);
#436=VECTOR('',#712,1.);
#437=VECTOR('',#713,1.);
#438=VECTOR('',#714,1.);
#439=VECTOR('',#715,1.);
#440=VECTOR('',#718,1.);
#441=VECTOR('',#721,1.);
#442=VECTOR('',#726,1.);
#443=VECTOR('',#727,1.);
#444=VECTOR('',#728,1.);
#445=VECTOR('',#735,1.);
#446=VECTOR('',#736,1.);
#447=VECTOR('',#737,1.);
#448=VECTOR('',#738,1.);
#449=VECTOR('',#739,1.);
#450=VECTOR('',#742,1.);
#451=VECTOR('',#743,1.);
#452=VECTOR('',#744,1.);
#453=VECTOR('',#747,1.);
#454=VECTOR('',#748,1.);
#455=VECTOR('',#751,1.);
#456=VECTOR('',#752,1.);
#457=VECTOR('',#755,1.);
#458=VECTOR('',#758,1.);
#459=VECTOR('',#761,1.);
#460=VECTOR('',#762,1.);
#461=VECTOR('',#763,1.);
#462=VECTOR('',#766,1.);
#463=VECTOR('',#767,1.);
#464=EDGE_LOOP('',(#31,#32,#33,#34,#35,#36,#37,#38,#39,#40,#41,#42,#43,
#44));
#465=EDGE_LOOP('',(#45,#46,#47,#48));
#466=EDGE_LOOP('',(#49,#50,#51,#52));
#467=EDGE_LOOP('',(#53,#54,#55,#56,#57,#58,#59,#60,#61,#62));
#468=EDGE_LOOP('',(#63,#64,#65,#66));
#469=EDGE_LOOP('',(#67,#68,#69,#70));
#470=EDGE_LOOP('',(#71,#72,#73,#74));
#471=EDGE_LOOP('',(#75,#76,#77,#78,#79));
#472=EDGE_LOOP('',(#80,#81,#82,#83,#84,#85));
#473=EDGE_LOOP('',(#86,#87,#88,#89,#90,#91,#92,#93));
#474=EDGE_LOOP('',(#94,#95,#96,#97));
#475=EDGE_LOOP('',(#98,#99,#100,#101));
#476=EDGE_LOOP('',(#102,#103,#104,#105));
#477=EDGE_LOOP('',(#106,#107,#108,#109,#110,#111));
#478=EDGE_LOOP('',(#112,#113,#114,#115,#116));
#479=EDGE_LOOP('',(#117,#118,#119,#120,#121,#122,#123,#124));
#480=EDGE_LOOP('',(#125,#126,#127,#128));
#481=EDGE_LOOP('',(#129,#130,#131,#132));
#482=EDGE_LOOP('',(#133,#134,#135,#136));
#483=EDGE_LOOP('',(#137,#138,#139,#140));
#484=EDGE_LOOP('',(#141,#142,#143,#144));
#485=EDGE_LOOP('',(#145,#146,#147,#148,#149,#150));
#486=EDGE_LOOP('',(#151,#152,#153,#154));
#487=EDGE_LOOP('',(#155,#156,#157,#158));
#488=EDGE_LOOP('',(#159,#160,#161));
#489=EDGE_LOOP('',(#162,#163,#164));
#490=EDGE_LOOP('',(#165,#166,#167,#168));
#491=EDGE_LOOP('',(#169,#170,#171,#172));
#492=EDGE_LOOP('',(#173,#174,#175,#176));
#493=EDGE_LOOP('',(#177,#178,#179,#180));
#494=EDGE_LOOP('',(#181,#182,#183,#184));
#495=EDGE_LOOP('',(#185,#186,#187,#188));
#496=EDGE_LOOP('',(#189,#190,#191,#192));
#497=FACE_BOUND('',#464,.T.);
#498=FACE_BOUND('',#465,.T.);
#499=FACE_BOUND('',#466,.T.);
#500=FACE_BOUND('',#467,.T.);
#501=FACE_BOUND('',#468,.T.);
#502=FACE_BOUND('',#469,.T.);
#503=FACE_BOUND('',#470,.T.);
#504=FACE_BOUND('',#471,.T.);
#505=FACE_BOUND('',#472,.T.);
#506=FACE_BOUND('',#473,.T.);
#507=FACE_BOUND('',#474,.T.);
#508=FACE_BOUND('',#475,.T.);
#509=FACE_BOUND('',#476,.T.);
#510=FACE_BOUND('',#477,.T.);
#511=FACE_BOUND('',#478,.T.);
#512=FACE_BOUND('',#479,.T.);
#513=FACE_BOUND('',#480,.T.);
#514=FACE_BOUND('',#481,.T.);
#515=FACE_BOUND('',#482,.T.);
#516=FACE_BOUND('',#483,.T.);
#517=FACE_BOUND('',#484,.T.);
#518=FACE_BOUND('',#485,.T.);
#519=FACE_BOUND('',#486,.T.);
#520=FACE_BOUND('',#487,.T.);
#521=FACE_BOUND('',#488,.T.);
#522=FACE_BOUND('',#489,.T.);
#523=FACE_BOUND('',#490,.T.);
#524=FACE_BOUND('',#491,.T.);
#525=FACE_BOUND('',#492,.T.);
#526=FACE_BOUND('',#493,.T.);
#527=FACE_BOUND('',#494,.T.);
#528=FACE_BOUND('',#495,.T.);
#529=FACE_BOUND('',#496,.T.);
#530=PLANE('',#598);
#531=PLANE('',#601);
#532=PLANE('',#602);
#533=PLANE('',#605);
#534=PLANE('',#606);
#535=PLANE('',#607);
#536=PLANE('',#608);
#537=PLANE('',#610);
#538=PLANE('',#611);
#539=PLANE('',#612);
#540=PLANE('',#613);
#541=PLANE('',#614);
#542=PLANE('',#615);
#543=PLANE('',#616);
#544=PLANE('',#618);
#545=PLANE('',#619);
#546=PLANE('',#620);
#547=PLANE('',#621);
#548=PLANE('',#622);
#549=PLANE('',#623);
#550=PLANE('',#624);
#551=PLANE('',#625);
#552=PLANE('',#626);
#553=PLANE('',#627);
#554=ADVANCED_FACE('',(#497,#498),#530,.F.);
#555=ADVANCED_FACE('',(#499),#531,.F.);
#556=ADVANCED_FACE('',(#500),#532,.F.);
#557=ADVANCED_FACE('',(#501),#533,.T.);
#558=ADVANCED_FACE('',(#502),#534,.F.);
#559=ADVANCED_FACE('',(#503),#535,.F.);
#560=ADVANCED_FACE('',(#504),#536,.F.);
#561=ADVANCED_FACE('',(#505),#537,.F.);
#562=ADVANCED_FACE('',(#506),#538,.F.);
#563=ADVANCED_FACE('',(#507),#539,.F.);
#564=ADVANCED_FACE('',(#508),#540,.F.);
#565=ADVANCED_FACE('',(#509),#541,.F.);
#566=ADVANCED_FACE('',(#510),#542,.F.);
#567=ADVANCED_FACE('',(#511),#543,.F.);
#568=ADVANCED_FACE('',(#512),#544,.F.);
#569=ADVANCED_FACE('',(#513),#545,.F.);
#570=ADVANCED_FACE('',(#514),#546,.F.);
#571=ADVANCED_FACE('',(#515),#547,.T.);
#572=ADVANCED_FACE('',(#516),#548,.T.);
#573=ADVANCED_FACE('',(#517,#518),#549,.F.);
#574=ADVANCED_FACE('',(#519),#550,.F.);
#575=ADVANCED_FACE('',(#520),#551,.F.);
#576=ADVANCED_FACE('',(#521),#552,.T.);
#577=ADVANCED_FACE('',(#522),#553,.F.);
#578=ADVANCED_FACE('',(#523),#14,.T.);
#579=ADVANCED_FACE('',(#524),#15,.T.);
#580=ADVANCED_FACE('',(#525),#16,.T.);
#581=ADVANCED_FACE('',(#526),#12,.T.);
#582=ADVANCED_FACE('',(#527),#17,.T.);
#583=ADVANCED_FACE('',(#528),#13,.T.);
#584=ADVANCED_FACE('',(#529),#18,.T.);
#585=CLOSED_SHELL('',(#554,#555,#556,#557,#558,#559,#560,#561,#562,#563,
#564,#565,#566,#567,#568,#569,#570,#571,#572,#573,#574,#575,#576,#577,#578,
#579,#580,#581,#582,#583,#584));
#586=STYLED_ITEM('',(#587),#594);
#587=PRESENTATION_STYLE_ASSIGNMENT((#588));
#588=SURFACE_STYLE_USAGE(.BOTH.,#589);
#589=SURFACE_SIDE_STYLE('',(#590));
#590=SURFACE_STYLE_FILL_AREA(#591);
#591=FILL_AREA_STYLE('',(#592));
#592=FILL_AREA_STYLE_COLOUR('',#593);
#593=COLOUR_RGB('',0.647058823529412,0.647058823529412,0.647058823529412);
#594=MANIFOLD_SOLID_BREP('couvercle_gps',#585);
#595=SHAPE_DEFINITION_REPRESENTATION(#969,#596);
#596=SHAPE_REPRESENTATION('couvercle_gps',(#597),#964);
#597=AXIS2_PLACEMENT_3D('',#798,#641,#642);
#598=AXIS2_PLACEMENT_3D('',#799,#643,#644);
#599=AXIS2_PLACEMENT_3D('',#805,#647,#648);
#600=AXIS2_PLACEMENT_3D('',#809,#650,#651);
#601=AXIS2_PLACEMENT_3D('',#836,#665,#666);
#602=AXIS2_PLACEMENT_3D('',#845,#671,#672);
#603=AXIS2_PLACEMENT_3D('',#849,#674,#675);
#604=AXIS2_PLACEMENT_3D('',#865,#683,#684);
#605=AXIS2_PLACEMENT_3D('',#866,#685,#686);
#606=AXIS2_PLACEMENT_3D('',#872,#690,#691);
#607=AXIS2_PLACEMENT_3D('',#878,#695,#696);
#608=AXIS2_PLACEMENT_3D('',#884,#700,#701);
#609=AXIS2_PLACEMENT_3D('',#885,#702,#703);
#610=AXIS2_PLACEMENT_3D('',#887,#705,#706);
#611=AXIS2_PLACEMENT_3D('',#893,#710,#711);
#612=AXIS2_PLACEMENT_3D('',#899,#716,#717);
#613=AXIS2_PLACEMENT_3D('',#901,#719,#720);
#614=AXIS2_PLACEMENT_3D('',#903,#722,#723);
#615=AXIS2_PLACEMENT_3D('',#904,#724,#725);
#616=AXIS2_PLACEMENT_3D('',#909,#729,#730);
#617=AXIS2_PLACEMENT_3D('',#910,#731,#732);
#618=AXIS2_PLACEMENT_3D('',#911,#733,#734);
#619=AXIS2_PLACEMENT_3D('',#921,#740,#741);
#620=AXIS2_PLACEMENT_3D('',#927,#745,#746);
#621=AXIS2_PLACEMENT_3D('',#931,#749,#750);
#622=AXIS2_PLACEMENT_3D('',#935,#753,#754);
#623=AXIS2_PLACEMENT_3D('',#937,#756,#757);
#624=AXIS2_PLACEMENT_3D('',#939,#759,#760);
#625=AXIS2_PLACEMENT_3D('',#945,#764,#765);
#626=AXIS2_PLACEMENT_3D('',#948,#768,#769);
#627=AXIS2_PLACEMENT_3D('',#949,#770,#771);
#628=AXIS2_PLACEMENT_3D('',#950,#772,#773);
#629=AXIS2_PLACEMENT_3D('',#951,#774,#775);
#630=AXIS2_PLACEMENT_3D('',#952,#776,#777);
#631=AXIS2_PLACEMENT_3D('',#953,#778,#779);
#632=AXIS2_PLACEMENT_3D('',#954,#780,#781);
#633=AXIS2_PLACEMENT_3D('',#955,#782,#783);
#634=AXIS2_PLACEMENT_3D('',#956,#784,#785);
#635=AXIS2_PLACEMENT_3D('',#957,#786,#787);
#636=AXIS2_PLACEMENT_3D('',#958,#788,#789);
#637=AXIS2_PLACEMENT_3D('',#959,#790,#791);
#638=AXIS2_PLACEMENT_3D('',#960,#792,#793);
#639=AXIS2_PLACEMENT_3D('',#961,#794,#795);
#640=AXIS2_PLACEMENT_3D('',#962,#796,#797);
#641=DIRECTION('',(0.,0.,1.));
#642=DIRECTION('',(1.,0.,0.));
#643=DIRECTION('',(0.,0.,-1.));
#644=DIRECTION('',(-1.,0.,0.));
#645=DIRECTION('',(-1.,-8.55968864172054E-31,0.));
#646=DIRECTION('',(6.08674903851504E-17,-1.,0.));
#647=DIRECTION('',(0.,0.,-1.));
#648=DIRECTION('',(-1.,0.,0.));
#649=DIRECTION('',(1.,8.104313205981E-31,0.));
#650=DIRECTION('',(0.,0.,-1.));
#651=DIRECTION('',(-1.,0.,0.));
#652=DIRECTION('',(-8.104313205981E-31,-1.,0.));
#653=DIRECTION('',(-1.,-7.13307386810034E-31,0.));
#654=DIRECTION('',(-1.41249672747341E-46,1.,0.));
#655=DIRECTION('',(-1.,-7.82778732364535E-31,0.));
#656=DIRECTION('',(-1.41249672747341E-46,1.,0.));
#657=DIRECTION('',(-1.,-8.2401007313006E-31,0.));
#658=DIRECTION('',(1.41249672747341E-46,-1.,0.));
#659=DIRECTION('',(-1.,-8.08890576642589E-31,0.));
#660=DIRECTION('',(2.168404344971E-16,-1.,0.));
#661=DIRECTION('',(-1.,-8.14214285431953E-31,0.));
#662=DIRECTION('',(7.72133499045492E-31,1.,0.));
#663=DIRECTION('',(-1.,-8.14214285431953E-31,0.));
#664=DIRECTION('',(-5.28879108529507E-17,1.,0.));
#665=DIRECTION('',(-3.6498581934552E-15,-2.22044604925018E-16,1.));
#666=DIRECTION('',(1.,-8.104313205981E-31,3.6498581934552E-15));
#667=DIRECTION('',(8.104313205981E-31,-1.,-2.22044604925018E-16));
#668=DIRECTION('',(1.,-2.34882644965778E-33,3.6498581934552E-15));
#669=DIRECTION('',(-8.104313205981E-31,1.,2.22044604925018E-16));
#670=DIRECTION('',(1.,1.35787525319602E-32,3.6498581934552E-15));
#671=DIRECTION('',(-3.6498581934552E-15,-2.22044604925018E-16,1.));
#672=DIRECTION('',(1.,-8.104313205981E-31,3.6498581934552E-15));
#673=DIRECTION('',(-1.,0.,-3.6498581934552E-15));
#674=DIRECTION('',(-3.6498581934552E-15,-2.22044604925018E-16,1.));
#675=DIRECTION('',(1.,0.,3.6498581934552E-15));
#676=DIRECTION('',(-6.08674903851512E-17,1.,2.22044604925018E-16));
#677=DIRECTION('',(1.,4.55375435739538E-32,3.6498581934552E-15));
#678=DIRECTION('',(-7.5092412572954E-32,-1.,-2.22044604925018E-16));
#679=DIRECTION('',(1.,-2.34882644965761E-33,3.6498581934552E-15));
#680=DIRECTION('',(-7.5092412572954E-32,-1.,-2.22044604925018E-16));
#681=DIRECTION('',(1.,-9.71239337880655E-32,3.6498581934552E-15));
#682=DIRECTION('',(0.,1.,2.22044604925018E-16));
#683=DIRECTION('',(-3.6498581934552E-15,-2.22044604925018E-16,1.));
#684=DIRECTION('',(1.,0.,3.6498581934552E-15));
#685=DIRECTION('',(-1.,8.104313205981E-31,-3.6498581934552E-15));
#686=DIRECTION('',(-3.6498581934552E-15,0.,1.));
#687=DIRECTION('',(3.6498581934552E-15,2.22044604925018E-16,-1.));
#688=DIRECTION('',(-8.104313205981E-31,-1.,0.));
#689=DIRECTION('',(3.6498581934552E-15,2.22044604925018E-16,-1.));
#690=DIRECTION('',(8.104313205981E-31,-1.,-2.22044604925018E-16));
#691=DIRECTION('',(0.,2.22044604925018E-16,-1.));
#692=DIRECTION('',(3.6498581934552E-15,2.22044604925018E-16,-1.));
#693=DIRECTION('',(1.,8.104313205981E-31,0.));
#694=DIRECTION('',(3.6498581934552E-15,2.22044604925018E-16,-1.));
#695=DIRECTION('',(-1.,-6.08674903851504E-17,-3.6498581934552E-15));
#696=DIRECTION('',(-3.6498581934552E-15,0.,1.));
#697=DIRECTION('',(3.6498581934552E-15,2.22044604925018E-16,-1.));
#698=DIRECTION('',(6.08674903851504E-17,-1.,0.));
#699=DIRECTION('',(3.6498581934552E-15,2.22044604925018E-16,-1.));
#700=DIRECTION('',(-8.55968864172054E-31,1.,2.22044604925018E-16));
#701=DIRECTION('',(0.,-2.22044604925018E-16,1.));
#702=DIRECTION('',(-8.55968864172054E-31,1.,2.22044604925018E-16));
#703=DIRECTION('',(0.,-2.22044604925018E-16,1.));
#704=DIRECTION('',(3.6498581934552E-15,2.22044604925018E-16,-1.));
#705=DIRECTION('',(-1.,-2.168404344971E-16,-3.6498581934552E-15));
#706=DIRECTION('',(-3.6498581934552E-15,0.,1.));
#707=DIRECTION('',(3.6498581934552E-15,2.22044604925018E-16,-1.));
#708=DIRECTION('',(-7.5092412572954E-32,-1.,-2.22044604925018E-16));
#709=DIRECTION('',(-3.6498581934552E-15,-2.22044604925018E-16,1.));
#710=DIRECTION('',(-8.08890576642589E-31,1.,2.22044604925018E-16));
#711=DIRECTION('',(0.,-2.22044604925018E-16,1.));
#712=DIRECTION('',(3.6498581934552E-15,2.22044604925018E-16,-1.));
#713=DIRECTION('',(3.6498581934552E-15,2.22044604925018E-16,-1.));
#714=DIRECTION('',(3.6498581934552E-15,2.22044604925018E-16,-1.));
#715=DIRECTION('',(1.,-2.34882644965778E-33,3.6498581934552E-15));
#716=DIRECTION('',(-1.,-1.41249672747341E-46,-3.6498581934552E-15));
#717=DIRECTION('',(-3.6498581934552E-15,0.,1.));
#718=DIRECTION('',(3.6498581934552E-15,2.22044604925018E-16,-1.));
#719=DIRECTION('',(-8.2401007313006E-31,1.,2.22044604925018E-16));
#720=DIRECTION('',(0.,-2.22044604925018E-16,1.));
#721=DIRECTION('',(3.6498581934552E-15,2.22044604925018E-16,-1.));
#722=DIRECTION('',(1.,1.41249672747341E-46,3.6498581934552E-15));
#723=DIRECTION('',(3.6498581934552E-15,0.,-1.));
#724=DIRECTION('',(1.,1.41249672747341E-46,3.6498581934552E-15));
#725=DIRECTION('',(3.6498581934552E-15,0.,-1.));
#726=DIRECTION('',(3.6498581934552E-15,2.22044604925018E-16,-1.));
#727=DIRECTION('',(-3.6498581934552E-15,-2.22044604925018E-16,1.));
#728=DIRECTION('',(-7.5092412572954E-32,-1.,-2.22044604925018E-16));
#729=DIRECTION('',(-7.13307386810034E-31,1.,2.22044604925018E-16));
#730=DIRECTION('',(0.,-2.22044604925018E-16,1.));
#731=DIRECTION('',(-7.13307386810034E-31,1.,2.22044604925018E-16));
#732=DIRECTION('',(0.,-2.22044604925018E-16,1.));
#733=DIRECTION('',(8.08082494148442E-31,-1.,-2.22044604925018E-16));
#734=DIRECTION('',(0.,2.22044604925018E-16,-1.));
#735=DIRECTION('',(-1.,8.104313205981E-31,-3.6498581934552E-15));
#736=DIRECTION('',(3.6498581934552E-15,7.91038570971406E-46,-1.));
#737=DIRECTION('',(1.,-2.34882644965761E-33,3.6498581934552E-15));
#738=DIRECTION('',(1.,-2.34882644965761E-33,3.6498581934552E-15));
#739=DIRECTION('',(3.6498581934552E-15,7.91038570971406E-46,-1.));
#740=DIRECTION('',(8.14214285431953E-31,-1.,-2.22044604925018E-16));
#741=DIRECTION('',(0.,2.22044604925018E-16,-1.));
#742=DIRECTION('',(-3.6498581934552E-15,-2.22044604925018E-16,1.));
#743=DIRECTION('',(-3.6498581934552E-15,-2.22044604925018E-16,1.));
#744=DIRECTION('',(1.,3.78296483385349E-33,3.6498581934552E-15));
#745=DIRECTION('',(-1.,7.72133499045492E-31,-3.6498581934552E-15));
#746=DIRECTION('',(-3.6498581934552E-15,0.,1.));
#747=DIRECTION('',(-3.6498581934552E-15,-2.22044604925018E-16,1.));
#748=DIRECTION('',(3.82978215526077E-32,-1.,-2.22044604925018E-16));
#749=DIRECTION('',(8.14214285431953E-31,-1.,-2.22044604925018E-16));
#750=DIRECTION('',(0.,2.22044604925018E-16,-1.));
#751=DIRECTION('',(-3.6498581934552E-15,-2.22044604925018E-16,1.));
#752=DIRECTION('',(1.,3.78296483385367E-33,3.6498581934552E-15));
#753=DIRECTION('',(-1.,-5.28879108529507E-17,-3.6498581934552E-15));
#754=DIRECTION('',(-3.6498581934552E-15,0.,1.));
#755=DIRECTION('',(5.28879108529515E-17,-1.,-2.22044604925018E-16));
#756=DIRECTION('',(-3.6498581934552E-15,-2.22044604925018E-16,1.));
#757=DIRECTION('',(1.,-8.104313205981E-31,3.6498581934552E-15));
#758=DIRECTION('',(-1.,8.104313205981E-31,-3.6498581934552E-15));
#759=DIRECTION('',(-2.58083947896145E-15,-0.707106781186548,0.707106781186547));
#760=DIRECTION('',(0.,-0.707106781186547,-0.707106781186548));
#761=DIRECTION('',(-2.58083947896146E-15,0.707106781186547,0.707106781186548));
#762=DIRECTION('',(-1.,8.104313205981E-31,-3.6498581934552E-15));
#763=DIRECTION('',(-2.58083947896146E-15,0.707106781186547,0.707106781186548));
#764=DIRECTION('',(2.58083947896146E-15,-0.707106781186547,-0.707106781186548));
#765=DIRECTION('',(0.,0.707106781186548,-0.707106781186547));
#766=DIRECTION('',(-2.58083947896145E-15,-0.707106781186548,0.707106781186547));
#767=DIRECTION('',(-2.58083947896145E-15,-0.707106781186548,0.707106781186547));
#768=DIRECTION('',(1.,-8.104313205981E-31,3.6498581934552E-15));
#769=DIRECTION('',(8.104313205981E-31,1.,2.95795939571769E-45));
#770=DIRECTION('',(1.,-8.104313205981E-31,3.6498581934552E-15));
#771=DIRECTION('',(8.104313205981E-31,1.,2.95795939571769E-45));
#772=DIRECTION('',(3.6498581934552E-15,2.22044604925018E-16,-1.));
#773=DIRECTION('',(-1.,0.,-3.6498581934552E-15));
#774=DIRECTION('',(0.,0.,-1.));
#775=DIRECTION('',(-1.,0.,0.));
#776=DIRECTION('',(-3.6498581934552E-15,-2.22044604925018E-16,1.));
#777=DIRECTION('',(1.,0.,3.6498581934552E-15));
#778=DIRECTION('',(0.,0.,-1.));
#779=DIRECTION('',(-1.,0.,0.));
#780=DIRECTION('',(8.104313205981E-31,1.,0.));
#781=DIRECTION('',(-1.,8.104313205981E-31,0.));
#782=DIRECTION('',(0.,1.,0.));
#783=DIRECTION('',(0.,0.,1.));
#784=DIRECTION('',(0.,0.,-1.));
#785=DIRECTION('',(-1.,0.,0.));
#786=DIRECTION('',(1.,0.,0.));
#787=DIRECTION('',(0.,0.,-1.));
#788=DIRECTION('',(1.,8.104313205981E-31,0.));
#789=DIRECTION('',(-8.104313205981E-31,1.,0.));
#790=DIRECTION('',(1.,0.,0.));
#791=DIRECTION('',(0.,0.,-1.));
#792=DIRECTION('',(0.,0.,-1.));
#793=DIRECTION('',(-1.,0.,0.));
#794=DIRECTION('',(0.,-1.,0.));
#795=DIRECTION('',(0.,0.,-1.));
#796=DIRECTION('',(6.08674903851504E-17,-1.,0.));
#797=DIRECTION('',(1.,6.08674903851504E-17,0.));
#798=CARTESIAN_POINT('',(0.,0.,0.));
#799=CARTESIAN_POINT('',(0.00359307213613751,0.0581361607188183,-0.01));
#800=CARTESIAN_POINT('',(0.000611499872996039,0.0683361607188183,-0.01));
#801=CARTESIAN_POINT('',(0.000961499872995997,0.0683361607188183,-0.01));
#802=CARTESIAN_POINT('',(-0.000738500127003962,0.0683361607188183,-0.01));
#803=CARTESIAN_POINT('',(0.000961499872995998,0.0581361607188183,-0.01));
#804=CARTESIAN_POINT('',(0.000961499872995995,0.0946361607188183,-0.01));
#805=CARTESIAN_POINT('',(-3.85001270040046E-5,0.0946361607188183,-0.01));
#806=CARTESIAN_POINT('',(-3.85001270040046E-5,0.0956361607188183,-0.01));
#807=CARTESIAN_POINT('',(0.00359307213613751,0.0956361607188183,-0.01));
#808=CARTESIAN_POINT('',(-0.030038500127004,0.0956361607188183,-0.01));
#809=CARTESIAN_POINT('',(-0.030038500127004,0.0946361607188183,-0.01));
#810=CARTESIAN_POINT('',(-0.031038500127004,0.0946361607188183,-0.01));
#811=CARTESIAN_POINT('',(-0.031038500127004,0.0683361607188183,-0.01));
#812=CARTESIAN_POINT('',(-0.031038500127004,0.0683361607188183,-0.01));
#813=CARTESIAN_POINT('',(-0.030688500127004,0.0683361607188183,-0.01));
#814=CARTESIAN_POINT('',(-0.029338500127004,0.0683361607188183,-0.01));
#815=CARTESIAN_POINT('',(-0.029338500127004,0.0668361607188183,-0.01));
#816=CARTESIAN_POINT('',(-0.029338500127004,0.0653361607188183,-0.01));
#817=CARTESIAN_POINT('',(-0.0256479362458747,0.0653361607188183,-0.01));
#818=CARTESIAN_POINT('',(-0.0219573723647455,0.0653361607188183,-0.01));
#819=CARTESIAN_POINT('',(-0.0219573723647455,0.0637361607188182,-0.01));
#820=CARTESIAN_POINT('',(-0.0219573723647455,0.0621361607188183,-0.01));
#821=CARTESIAN_POINT('',(-0.0163479362458747,0.0621361607188183,-0.01));
#822=CARTESIAN_POINT('',(-0.010738500127004,0.0621361607188183,-0.01));
#823=CARTESIAN_POINT('',(-0.010738500127004,0.0637361607188182,-0.01));
#824=CARTESIAN_POINT('',(-0.010738500127004,0.0653361607188183,-0.01));
#825=CARTESIAN_POINT('',(-0.00573850012700397,0.0653361607188183,-0.01));
#826=CARTESIAN_POINT('',(-0.000738500127003961,0.0653361607188183,-0.01));
#827=CARTESIAN_POINT('',(-0.000738500127003962,0.0668361607188183,-0.01));
#828=CARTESIAN_POINT('',(-0.0150385001270039,0.0673361607188183,-0.01));
#829=CARTESIAN_POINT('',(-0.00273850012700397,0.0673361607188183,-0.01));
#830=CARTESIAN_POINT('',(-0.027338500127004,0.0673361607188183,-0.01));
#831=CARTESIAN_POINT('',(-0.027338500127004,0.0796361607188182,-0.01));
#832=CARTESIAN_POINT('',(-0.027338500127004,0.0919361607188182,-0.01));
#833=CARTESIAN_POINT('',(-0.0150385001270039,0.0919361607188182,-0.01));
#834=CARTESIAN_POINT('',(-0.00273850012700397,0.0919361607188182,-0.01));
#835=CARTESIAN_POINT('',(-0.00273850012700397,0.0796361607188182,-0.01));
#836=CARTESIAN_POINT('',(-0.015038500127004,0.0793861607188183,-0.0124200508001018));
#837=CARTESIAN_POINT('',(-0.0219573723647455,0.0637361607188182,-0.0124200508001018));
#838=CARTESIAN_POINT('',(-0.0219573723647455,0.0653361607188183,-0.0124200508001018));
#839=CARTESIAN_POINT('',(-0.0219573723647455,0.0621361607188183,-0.0124200508001018));
#840=CARTESIAN_POINT('',(-0.0150385001270039,0.0653361607188183,-0.0124200508001018));
#841=CARTESIAN_POINT('',(-0.010738500127004,0.0653361607188183,-0.0124200508001017));
#842=CARTESIAN_POINT('',(-0.010738500127004,0.0637361607188182,-0.0124200508001017));
#843=CARTESIAN_POINT('',(-0.010738500127004,0.0621361607188183,-0.0124200508001017));
#844=CARTESIAN_POINT('',(-0.0163479362458747,0.0621361607188183,-0.0124200508001018));
#845=CARTESIAN_POINT('',(-0.015038500127004,0.0793861607188183,-0.0124200508001018));
#846=CARTESIAN_POINT('',(-3.85001270049378E-5,0.0966361607188183,-0.0124200508001017));
#847=CARTESIAN_POINT('',(-3.85001270039994E-5,0.0966361607188183,-0.0124200508001017));
#848=CARTESIAN_POINT('',(-0.030038500127004,0.0966361607188183,-0.0124200508001018));
#849=CARTESIAN_POINT('',(-3.85001270039994E-5,0.0946361607188183,-0.0124200508001017));
#850=CARTESIAN_POINT('',(0.001961499872996,0.0946361607188183,-0.0124200508001017));
#851=CARTESIAN_POINT('',(0.00196149987299601,0.0248602526670182,-0.0124200508001017));
#852=CARTESIAN_POINT('',(0.001961499872996,0.0683361607188183,-0.0124200508001017));
#853=CARTESIAN_POINT('',(0.000611499872996047,0.0683361607188183,-0.0124200508001017));
#854=CARTESIAN_POINT('',(-0.000738500127003953,0.0683361607188183,-0.0124200508001017));
#855=CARTESIAN_POINT('',(-0.000738500127003952,0.0796361607188182,-0.0124200508001017));
#856=CARTESIAN_POINT('',(-0.000738500127003952,0.0939361607188182,-0.0124200508001017));
#857=CARTESIAN_POINT('',(-0.0150385001270039,0.0939361607188182,-0.0124200508001018));
#858=CARTESIAN_POINT('',(-0.029338500127004,0.0939361607188182,-0.0124200508001018));
#859=CARTESIAN_POINT('',(-0.029338500127004,0.0796361607188182,-0.0124200508001018));
#860=CARTESIAN_POINT('',(-0.029338500127004,0.0683361607188183,-0.0124200508001018));
#861=CARTESIAN_POINT('',(-0.030688500127004,0.0683361607188183,-0.0124200508001018));
#862=CARTESIAN_POINT('',(-0.032038500127004,0.0683361607188183,-0.0124200508001018));
#863=CARTESIAN_POINT('',(-0.032038500127004,0.0248602526670182,-0.0124200508001018));
#864=CARTESIAN_POINT('',(-0.032038500127004,0.0946361607188183,-0.0124200508001018));
#865=CARTESIAN_POINT('',(-0.030038500127004,0.0946361607188183,-0.0124200508001018));
#866=CARTESIAN_POINT('',(-0.032038500127004,0.0248602526670182,-0.00999800000000013));
#867=CARTESIAN_POINT('',(-0.032038500127004,0.0683361607188183,-0.00999800000000012));
#868=CARTESIAN_POINT('',(-0.032038500127004,0.0683361607188183,-0.011));
#869=CARTESIAN_POINT('',(-0.032038500127004,0.0946361607188183,-0.011));
#870=CARTESIAN_POINT('',(-0.032038500127004,0.0946361607188183,-0.011));
#871=CARTESIAN_POINT('',(-0.032038500127004,0.0946361607188183,-0.0124200508001018));
#872=CARTESIAN_POINT('',(-3.85001270049467E-5,0.0966361607188183,-0.009998));
#873=CARTESIAN_POINT('',(-0.030038500127004,0.0966361607188183,-0.01));
#874=CARTESIAN_POINT('',(-0.030038500127004,0.0966361607188183,-0.011));
#875=CARTESIAN_POINT('',(-3.85001270049467E-5,0.0966361607188183,-0.011));
#876=CARTESIAN_POINT('',(-3.85001270040046E-5,0.0966361607188183,-0.011));
#877=CARTESIAN_POINT('',(-3.85001270040082E-5,0.0966361607188183,-0.009998));
#878=CARTESIAN_POINT('',(0.001961499872996,0.0248602526670182,-0.009998));
#879=CARTESIAN_POINT('',(0.00196149987299599,0.0946361607188183,-0.009998));
#880=CARTESIAN_POINT('',(0.001961499872996,0.0946361607188183,-0.011));
#881=CARTESIAN_POINT('',(0.001961499872996,0.0248602526670182,-0.011));
#882=CARTESIAN_POINT('',(0.001961499872996,0.0683361607188183,-0.011));
#883=CARTESIAN_POINT('',(0.001961499872996,0.0683361607188183,-0.009998));
#884=CARTESIAN_POINT('',(0.000611499872996039,0.0683361607188183,-0.009998));
#885=CARTESIAN_POINT('',(0.000961499872995997,0.0683361607188183,-0.011));
#886=CARTESIAN_POINT('',(-0.000738500127003962,0.0683361607188183,-0.009998));
#887=CARTESIAN_POINT('',(-0.000738500127003962,0.0668361607188183,-0.009998));
#888=CARTESIAN_POINT('',(-0.000738500127003961,0.0653361607188183,-0.009998));
#889=CARTESIAN_POINT('',(-0.000738500127003943,0.0653361607188183,-0.0149000508001017));
#890=CARTESIAN_POINT('',(-0.000738500127003943,0.0796361607188182,-0.0149000508001017));
#891=CARTESIAN_POINT('',(-0.000738500127003943,0.0939361607188182,-0.0149000508001017));
#892=CARTESIAN_POINT('',(-0.000738500127003943,0.0939361607188182,-0.0149000508001017));
#893=CARTESIAN_POINT('',(-0.00573850012700397,0.0653361607188183,-0.009998));
#894=CARTESIAN_POINT('',(-0.010738500127004,0.0653361607188183,-0.009998));
#895=CARTESIAN_POINT('',(-0.0219573723647455,0.0653361607188183,-0.009998));
#896=CARTESIAN_POINT('',(-0.029338500127004,0.0653361607188183,-0.00999800000000011));
#897=CARTESIAN_POINT('',(-0.029338500127004,0.0653361607188183,-0.0149000508001018));
#898=CARTESIAN_POINT('',(-0.0150385001270039,0.0653361607188183,-0.0149000508001018));
#899=CARTESIAN_POINT('',(-0.010738500127004,0.0637361607188182,-0.009998));
#900=CARTESIAN_POINT('',(-0.010738500127004,0.0621361607188183,-0.009998));
#901=CARTESIAN_POINT('',(-0.0163479362458747,0.0621361607188183,-0.009998));
#902=CARTESIAN_POINT('',(-0.0219573723647455,0.0621361607188183,-0.009998));
#903=CARTESIAN_POINT('',(-0.0219573723647455,0.0637361607188182,-0.009998));
#904=CARTESIAN_POINT('',(-0.029338500127004,0.0668361607188183,-0.00999800000000011));
#905=CARTESIAN_POINT('',(-0.029338500127004,0.0683361607188183,-0.00999800000000011));
#906=CARTESIAN_POINT('',(-0.029338500127004,0.0939361607188182,-0.0149000508001018));
#907=CARTESIAN_POINT('',(-0.029338500127004,0.0939361607188182,-0.0149000508001018));
#908=CARTESIAN_POINT('',(-0.029338500127004,0.0796361607188182,-0.0149000508001018));
#909=CARTESIAN_POINT('',(-0.030688500127004,0.0683361607188183,-0.00999800000000011));
#910=CARTESIAN_POINT('',(-0.031038500127004,0.0683361607188183,-0.011));
#911=CARTESIAN_POINT('',(-0.0150385001270039,0.0939361607188182,-0.0149000508001017));
#912=CARTESIAN_POINT('',(-0.012038500127004,0.0939361607188182,-0.0134000508001017));
#913=CARTESIAN_POINT('',(-0.012038500127004,0.0939361607188182,-0.0134000508001017));
#914=CARTESIAN_POINT('',(-0.018038500127004,0.0939361607188182,-0.0134000508001018));
#915=CARTESIAN_POINT('',(-0.018038500127004,0.0939361607188182,-0.0141500508001018));
#916=CARTESIAN_POINT('',(-0.018038500127004,0.0939361607188182,-0.0149000508001018));
#917=CARTESIAN_POINT('',(-0.0150385001270039,0.0939361607188182,-0.0149000508001017));
#918=CARTESIAN_POINT('',(-0.0150385001270039,0.0939361607188182,-0.0149000508001017));
#919=CARTESIAN_POINT('',(-0.012038500127004,0.0939361607188182,-0.0149000508001017));
#920=CARTESIAN_POINT('',(-0.012038500127004,0.0939361607188182,-0.0141500508001017));
#921=CARTESIAN_POINT('',(-0.0150385001270039,0.0673361607188183,-0.0149000508001018));
#922=CARTESIAN_POINT('',(-0.027338500127004,0.0673361607188183,-0.0149000508001018));
#923=CARTESIAN_POINT('',(-0.027338500127004,0.0673361607188183,-0.0149000508001018));
#924=CARTESIAN_POINT('',(-0.00273850012700395,0.0673361607188183,-0.0149000508001017));
#925=CARTESIAN_POINT('',(-0.00273850012700395,0.0673361607188183,-0.0149000508001017));
#926=CARTESIAN_POINT('',(-0.0150385001270039,0.0673361607188183,-0.0149000508001018));
#927=CARTESIAN_POINT('',(-0.027338500127004,0.0796361607188182,-0.0149000508001018));
#928=CARTESIAN_POINT('',(-0.027338500127004,0.0919361607188182,-0.0149000508001018));
#929=CARTESIAN_POINT('',(-0.027338500127004,0.0919361607188182,-0.0149000508001018));
#930=CARTESIAN_POINT('',(-0.027338500127004,0.0796361607188182,-0.0149000508001018));
#931=CARTESIAN_POINT('',(-0.0150385001270039,0.0919361607188182,-0.0149000508001018));
#932=CARTESIAN_POINT('',(-0.00273850012700395,0.0919361607188182,-0.0149000508001017));
#933=CARTESIAN_POINT('',(-0.00273850012700395,0.0919361607188182,-0.0149000508001017));
#934=CARTESIAN_POINT('',(-0.0150385001270039,0.0919361607188182,-0.0149000508001018));
#935=CARTESIAN_POINT('',(-0.00273850012700395,0.0796361607188182,-0.0149000508001017));
#936=CARTESIAN_POINT('',(-0.00273850012700395,0.0796361607188182,-0.0149000508001017));
#937=CARTESIAN_POINT('',(-0.015038500127004,0.0809861607188182,-0.0149000508001018));
#938=CARTESIAN_POINT('',(-0.012038500127004,0.0939361607188182,-0.0149000508001017));
#939=CARTESIAN_POINT('',(-0.012038500127004,0.0943111607188182,-0.0145250508001017));
#940=CARTESIAN_POINT('',(-0.018038500127004,0.0943111607188182,-0.0145250508001018));
#941=CARTESIAN_POINT('',(-0.018038500127004,0.0946861607188182,-0.0141500508001018));
#942=CARTESIAN_POINT('',(-0.012038500127004,0.0946861607188182,-0.0141500508001017));
#943=CARTESIAN_POINT('',(-0.012038500127004,0.0946861607188182,-0.0141500508001017));
#944=CARTESIAN_POINT('',(-0.012038500127004,0.0943111607188182,-0.0145250508001017));
#945=CARTESIAN_POINT('',(-0.012038500127004,0.0943111607188182,-0.0137750508001017));
#946=CARTESIAN_POINT('',(-0.018038500127004,0.0943111607188182,-0.0137750508001018));
#947=CARTESIAN_POINT('',(-0.012038500127004,0.0943111607188182,-0.0137750508001017));
#948=CARTESIAN_POINT('',(-0.012038500127004,0.0943111607188182,-0.0141500508001017));
#949=CARTESIAN_POINT('',(-0.018038500127004,0.0943111607188182,-0.0141500508001018));
#950=CARTESIAN_POINT('',(-3.85001270040082E-5,0.0946361607188183,-0.009998));
#951=CARTESIAN_POINT('',(-3.85001270040046E-5,0.0946361607188183,-0.011));
#952=CARTESIAN_POINT('',(-0.030038500127004,0.0946361607188183,-0.00999800000000011));
#953=CARTESIAN_POINT('',(-0.030038500127004,0.0946361607188183,-0.011));
#954=CARTESIAN_POINT('',(-0.031038500127004,0.0581361607188183,-0.011));
#955=CARTESIAN_POINT('',(-0.031038500127004,0.0946361607188183,-0.011));
#956=CARTESIAN_POINT('',(-0.030038500127004,0.0946361607188183,-0.011));
#957=CARTESIAN_POINT('',(-0.030038500127004,0.0956361607188183,-0.011));
#958=CARTESIAN_POINT('',(-3.85001270049467E-5,0.0956361607188183,-0.011));
#959=CARTESIAN_POINT('',(-3.85001270040046E-5,0.0956361607188183,-0.011));
#960=CARTESIAN_POINT('',(-3.85001270040046E-5,0.0946361607188183,-0.011));
#961=CARTESIAN_POINT('',(0.000961499872995995,0.0946361607188183,-0.011));
#962=CARTESIAN_POINT('',(0.000961499872996,0.0248602526670182,-0.011));
#963=MECHANICAL_DESIGN_GEOMETRIC_PRESENTATION_REPRESENTATION('',(#586),
#964);
#964=(
GEOMETRIC_REPRESENTATION_CONTEXT(3)
GLOBAL_UNCERTAINTY_ASSIGNED_CONTEXT((#965))
GLOBAL_UNIT_ASSIGNED_CONTEXT((#968,#967,#966))
REPRESENTATION_CONTEXT('couvercle_gps','TOP_LEVEL_ASSEMBLY_PART')
);
#965=UNCERTAINTY_MEASURE_WITH_UNIT(LENGTH_MEASURE(1.E-8),#968,
'DISTANCE_ACCURACY_VALUE','Maximum Tolerance applied to model');
#966=(
NAMED_UNIT(*)
SI_UNIT($,.STERADIAN.)
SOLID_ANGLE_UNIT()
);
#967=(
NAMED_UNIT(*)
PLANE_ANGLE_UNIT()
SI_UNIT($,.RADIAN.)
);
#968=(
LENGTH_UNIT()
NAMED_UNIT(*)
SI_UNIT($,.METRE.)
);
#969=PRODUCT_DEFINITION_SHAPE('','',#970);
#970=PRODUCT_DEFINITION('','',#972,#971);
#971=PRODUCT_DEFINITION_CONTEXT('',#978,'design');
#972=PRODUCT_DEFINITION_FORMATION_WITH_SPECIFIED_SOURCE('','',#974,
 .NOT_KNOWN.);
#973=PRODUCT_RELATED_PRODUCT_CATEGORY('','',(#974));
#974=PRODUCT('couvercle_gps','couvercle_gps','couvercle_gps',(#976));
#975=PRODUCT_CATEGORY('','');
#976=PRODUCT_CONTEXT('',#978,'mechanical');
#977=APPLICATION_PROTOCOL_DEFINITION('international standard',
'ap242_managed_model_based_3d_engineering',2011,#978);
#978=APPLICATION_CONTEXT('managed model based 3d engineering');
ENDSEC;
END-ISO-10303-21;
