  0
SECTION
  2
HEADER
  9
$ACADVER
  1
AC1009
  9
$DWGCODEPAGE
  3
ansi_1252
  9
$INSBASE
 10
0.0
 20
0.0
 30
0.0
  9
$EXTMIN
 10
1.000000000000000E+20
 20
1.000000000000000E+20
 30
1.000000000000000E+20
  9
$EXTMAX
 10
-1.000000000000000E+20
 20
-1.000000000000000E+20
 30
-1.000000000000000E+20
  9
$LIMMIN
 10
0.0
 20
0.0
  9
$LIMMAX
 10
420.0
 20
297.0
  9
$ORTHOMODE
 70
     0
  9
$REGENMODE
 70
     1
  9
$FILLMODE
 70
     1
  9
$QTEXTMODE
 70
     0
  9
$MIRRTEXT
 70
     1
  9
$DRAGMODE
 70
     2
  9
$LTSCALE
 40
1.0
  9
$OSMODE
 70
    37
  9
$ATTMODE
 70
     1
  9
$TEXTSIZE
 40
2.5
  9
$TRACEWID
 40
1.0
  9
$TEXTSTYLE
  7
STANDARD
  9
$CLAYER
  8
0
  9
$CELTYPE
  6
BYLAYER
  9
$CECOLOR
 62
   256
  9
$DIMSCALE
 40
1.0
  9
$DIMASZ
 40
2.5
  9
$DIMEXO
 40
0.625
  9
$DIMDLI
 40
3.75
  9
$DIMRND
 40
0.0
  9
$DIMDLE
 40
0.0
  9
$DIMEXE
 40
1.25
  9
$DIMTP
 40
0.0
  9
$DIMTM
 40
0.0
  9
$DIMTXT
 40
2.5
  9
$DIMCEN
 40
2.5
  9
$DIMTSZ
 40
0.0
  9
$DIMTOL
 70
     0
  9
$DIMLIM
 70
     0
  9
$DIMTIH
 70
     0
  9
$DIMTOH
 70
     0
  9
$DIMSE1
 70
     0
  9
$DIMSE2
 70
     0
  9
$DIMTAD
 70
     1
  9
$DIMZIN
 70
     8
  9
$DIMBLK
  1

  9
$DIMASO
 70
     1
  9
$DIMSHO
 70
     1
  9
$DIMPOST
  1

  9
$DIMAPOST
  1

  9
$DIMALT
 70
     0
  9
$DIMALTD
 70
     3
  9
$DIMALTF
 40
0.03937007874016
  9
$DIMLFAC
 40
1.0
  9
$DIMTOFL
 70
     1
  9
$DIMTVP
 40
0.0
  9
$DIMTIX
 70
     0
  9
$DIMSOXD
 70
     0
  9
$DIMSAH
 70
     0
  9
$DIMBLK1
  1

  9
$DIMBLK2
  1

  9
$DIMSTYLE
  2
ISO-25
  9
$DIMCLRD
 70
     0
  9
$DIMCLRE
 70
     0
  9
$DIMCLRT
 70
     0
  9
$DIMTFAC
 40
1.0
  9
$DIMGAP
 40
0.625
  9
$LUNITS
 70
     2
  9
$LUPREC
 70
     4
  9
$SKETCHINC
 40
1.0
  9
$FILLETRAD
 40
0.0
  9
$AUNITS
 70
     0
  9
$AUPREC
 70
     0
  9
$MENU
  1
.
  9
$ELEVATION
 40
0.0
  9
$PELEVATION
 40
0.0
  9
$THICKNESS
 40
0.0
  9
$LIMCHECK
 70
     0
  9
$CHAMFERA
 40
0.0
  9
$CHAMFERB
 40
0.0
  9
$SKPOLY
 70
     0
  9
$TDCREATE
 40
2460932.427000868
  9
$TDUPDATE
 40
2460932.427000914
  9
$TDINDWG
 40
0.0000000116
  9
$TDUSRTIMER
 40
0.0000000116
  9
$USRTIMER
 70
     1
  9
$ANGBASE
 50
0.0
  9
$ANGDIR
 70
     0
  9
$PDMODE
 70
     0
  9
$PDSIZE
 40
0.0
  9
$PLINEWID
 40
0.0
  9
$COORDS
 70
     1
  9
$SPLFRAME
 70
     0
  9
$SPLINETYPE
 70
     6
  9
$SPLINESEGS
 70
     8
  9
$ATTDIA
 70
     0
  9
$ATTREQ
 70
     1
  9
$HANDLING
 70
     1
  9
$HANDSEED
  5
10000126
  9
$SURFTAB1
 70
     6
  9
$SURFTAB2
 70
     6
  9
$SURFTYPE
 70
     6
  9
$SURFU
 70
     6
  9
$SURFV
 70
     6
  9
$UCSNAME
  2

  9
$UCSORG
 10
0.0
 20
0.0
 30
0.0
  9
$UCSXDIR
 10
1.0
 20
0.0
 30
0.0
  9
$UCSYDIR
 10
0.0
 20
1.0
 30
0.0
  9
$PUCSNAME
  2

  9
$PUCSORG
 10
0.0
 20
0.0
 30
0.0
  9
$PUCSXDIR
 10
1.0
 20
0.0
 30
0.0
  9
$PUCSYDIR
 10
0.0
 20
1.0
 30
0.0
  9
$USERI1
 70
     0
  9
$USERI2
 70
     0
  9
$USERI3
 70
     0
  9
$USERI4
 70
     0
  9
$USERI5
 70
     0
  9
$USERR1
 40
0.0
  9
$USERR2
 40
0.0
  9
$USERR3
 40
0.0
  9
$USERR4
 40
0.0
  9
$USERR5
 40
0.0
  9
$WORLDVIEW
 70
     1
  9
$SHADEDGE
 70
     3
  9
$SHADEDIF
 70
    70
  9
$TILEMODE
 70
     1
  9
$MAXACTVP
 70
    64
  9
$PLIMCHECK
 70
     0
  9
$PEXTMIN
 10
1.000000000000000E+20
 20
1.000000000000000E+20
 30
1.000000000000000E+20
  9
$PEXTMAX
 10
-1.000000000000000E+20
 20
-1.000000000000000E+20
 30
-1.000000000000000E+20
  9
$PLIMMIN
 10
0.0
 20
0.0
  9
$PLIMMAX
 10
420.0
 20
297.0
  9
$UNITMODE
 70
     0
  9
$VISRETAIN
 70
     1
  9
$PLINEGEN
 70
     0
  9
$PSLTSCALE
 70
     1
  0
ENDSEC
  0
SECTION
  2
TABLES
  0
TABLE
  2
VPORT
 70
     1
  0
VPORT
  2
*ACTIVE
 70
     0
 10
0.0
 20
0.0
 11
1.0
 21
1.0
 12
344.1869158878504
 22
148.5
 13
0.0
 23
0.0
 14
10.0
 24
10.0
 15
10.0
 25
10.0
 16
0.0
 26
0.0
 36
1.0
 17
0.0
 27
0.0
 37
0.0
 40
297.0
 41
1.972972972850329
 42
50.0
 43
0.0
 44
0.0
 50
0.0
 51
0.0
 71
     0
 72
   100
 73
     1
 74
     3
 75
     0
 76
     0
 77
     0
 78
     0
  0
ENDTAB
  0
TABLE
  2
LTYPE
 70
     7
  0
LTYPE
  2
CONTINUOUS
 70
     0
  3
Solid line
 72
    65
 73
     0
 40
0.0
  0
LTYPE
  2
ONS_PHANTOM
 70
     0
  3
Onshape Phantom line ______ __ __ ______
 72
    65
 73
     6
 40
0.4999999999999999
 49
0.25
 49
-0.05
 49
0.05
 49
-0.05
 49
0.05
 49
-0.05
  0
LTYPE
  2
CENTER
 70
     0
  3
Center line ____ _ ____ _ ____ _
 72
    65
 73
     4
 40
0.7874015748031495
 49
0.4921259842519685
 49
-0.0984251968503937
 49
0.0984251968503937
 49
-0.0984251968503937
  0
LTYPE
  2
DASHED
 70
     0
  3
Dashed line __ __ __ __ __
 72
    65
 73
     2
 40
0.75
 49
0.5
 49
-0.25
  0
LTYPE
  2
ONS_DASHDOT
 70
     0
  3
Onshape Dashed with Dot _ . ____ . ____
 72
    65
 73
     4
 40
0.71
 49
0.5
 49
-0.1
 49
0.01
 49
-0.1
  0
LTYPE
  2
ONS_DOTTED
 70
     0
  3
Onshape Dotted line . . . . . . .
 72
    65
 73
     2
 40
0.11
 49
0.01
 49
-0.1
  0
LTYPE
  2
HIDDEN
 70
     0
  3
Hidden line ____ ____ ____ ____ 
 72
    65
 73
     2
 40
0.15
 49
0.1
 49
-0.05
  0
ENDTAB
  0
TABLE
  2
LAYER
 70
    48
  0
LAYER
  2
0
 70
     0
 62
     7
  6
CONTINUOUS
  0
LAYER
  2
SECTION_CUTTING_LINE
 70
     0
 62
     7
  6
ONS_DASHDOT
  0
LAYER
  2
DETAIL_VIEW_BORDER
 70
     0
 62
     7
  6
CONTINUOUS
  0
LAYER
  2
DETAIL_VIEW_PARENT_BORDER
 70
     0
 62
     7
  6
ONS_PHANTOM
  0
LAYER
  2
TEXT
 70
     0
 62
     7
  6
CONTINUOUS
  0
LAYER
  2
SKETCHED_GEOMETRY
 70
     0
 62
    -7
  6
CONTINUOUS
  0
LAYER
  2
VIRTUAL_SHARPS
 70
     0
 62
    -7
  6
CONTINUOUS
  0
LAYER
  2
CENTERLINES
 70
     0
 62
    -7
  6
CENTER
  0
LAYER
  2
CENTERMARKS
 70
     0
 62
    -7
  6
CONTINUOUS
  0
LAYER
  2
TABLES
 70
     0
 62
     7
  6
CONTINUOUS
  0
LAYER
  2
IMAGES
 70
     0
 62
    -7
  6
CONTINUOUS
  0
LAYER
  2
ANNOTATION_LINES
 70
     0
 62
    -7
  6
CONTINUOUS
  0
LAYER
  2
ANNOTATION_TEXT
 70
     0
 62
    -7
  6
CONTINUOUS
  0
LAYER
  2
SIDE_THREAD_SYMBOLS
 70
     0
 62
     7
  6
CONTINUOUS
  0
LAYER
  2
SIDE_THREAD_SYMBOLS_HIDDEN
 70
     0
 62
    -7
  6
HIDDEN
  0
LAYER
  2
SURFACE_THREAD_SYMBOLS
 70
     0
 62
     7
  6
CONTINUOUS
  0
LAYER
  2
SURFACE_THREAD_SYMBOLS_ON_
 70
     0
 62
     7
  6
CONTINUOUS
  0
LAYER
  2
SURFACE_THREAD_SYMBOLS_HID
 70
     0
 62
    -7
  6
HIDDEN
  0
LAYER
  2
BLIND_THREAD_SYMBOLS
 70
     0
 62
     7
  6
CONTINUOUS
  0
LAYER
  2
BLIND_THREAD_SYMBOLS_HIDDE
 70
     0
 62
    -7
  6
HIDDEN
  0
LAYER
  2
EXPLODE_LINES
 70
     0
 62
     7
  6
ONS_PHANTOM
  0
LAYER
  2
HIDDEN_EXPLODE_LINES
 70
     0
 62
    -7
  6
ONS_PHANTOM
  0
LAYER
  2
BREAK_LINES
 70
     0
 62
    -7
  6
CONTINUOUS
  0
LAYER
  2
SHEETMETAL_BEND_LINES_UP
 70
     0
 62
     7
  6
CENTER
  0
LAYER
  2
SHEETMETAL_BEND_LINES_DOWN
 70
     0
 62
     7
  6
CENTER
  0
LAYER
  2
SHEETMETAL_BEND_TANGENT_LI
 70
     0
 62
     7
  6
CONTINUOUS
  0
LAYER
  2
SHEETMETAL_CUT_LINES
 70
     0
 62
     7
  6
CONTINUOUS
  0
LAYER
  2
SHEETMETAL_CBORE_CSINK_UP
 70
     0
 62
     7
  6
CONTINUOUS
  0
LAYER
  2
SHEETMETAL_CBORE_CSINK_DOW
 70
     0
 62
     7
  6
CONTINUOUS
  0
LAYER
  2
SHEETMETAL_CBORE_CSINK_UP_
 70
     0
 62
    -7
  6
HIDDEN
  0
LAYER
  2
SHEETMETAL_CBORE_CSINK_DO0
 70
     0
 62
    -7
  6
HIDDEN
  0
LAYER
  2
SHEETMETAL_FORM_TEAR
 70
     0
 62
     7
  6
CONTINUOUS
  0
LAYER
  2
SHEETMETAL_FORM_UP
 70
     0
 62
     7
  6
CENTER
  0
LAYER
  2
SHEETMETAL_FORM_DOWN
 70
     0
 62
     7
  6
CENTER
  0
LAYER
  2
SHEETMETAL_FORM_CENTERMARK
 70
     0
 62
     7
  6
CENTER
  0
LAYER
  2
REGION_ASSOC_POINTS
 70
     0
 62
    -7
  6
CONTINUOUS
  0
LAYER
  2
PATTERN_CENTERLINES
 70
     1
 62
    -7
  6
CENTER
  0
LAYER
  2
HIDDEN
 70
     0
 62
    -7
  6
HIDDEN
  0
LAYER
  2
VISIBLE
 70
     0
 62
     7
  6
CONTINUOUS
  0
LAYER
  2
MODELSKETCH_VISIBLE
 70
     0
 62
     7
  6
CONTINUOUS
  0
LAYER
  2
MODELSKETCH_POINT
 70
     0
 62
     7
  6
CONTINUOUS
  0
LAYER
  2
MODELSKETCH_CONSTRUCTION
 70
     0
 62
    -7
  6
CENTER
  0
LAYER
  2
HIDDEN_BASE_VIEW
 70
     0
 62
     7
  6
CONTINUOUS
  0
LAYER
  2
TANGENT_LINES
 70
     0
 62
    -7
  6
CONTINUOUS
  0
LAYER
  2
TANGENT_HIDDEN
 70
     0
 62
    -7
  6
HIDDEN
  0
LAYER
  2
INVISIBLE_LINES
 70
     0
 62
    -7
  6
CONTINUOUS
  0
LAYER
  2
VIEW_HATCHES
 70
     0
 62
    -7
  6
CONTINUOUS
  0
LAYER
  2
SECTION_JOG_LINES
 70
     0
 62
    -7
  6
CONTINUOUS
  0
ENDTAB
  0
TABLE
  2
STYLE
 70
     2
  0
STYLE
  2
STANDARD
 70
     0
 40
0.0
 41
1.0
 50
0.0
 71
     0
 42
2.5
  3
txt
  4

  0
STYLE
  2
TTFSTYLE
 70
     0
 40
0.0
 41
1.0
 50
0.0
 71
     0
 42
2.5
  3

  4

  0
ENDTAB
  0
TABLE
  2
VIEW
 70
     0
  0
ENDTAB
  0
TABLE
  2
UCS
 70
     0
  0
ENDTAB
  0
TABLE
  2
APPID
 70
     1
  0
APPID
  2
ACAD
 70
     0
  0
ENDTAB
  0
TABLE
  2
DIMSTYLE
 70
     1
  0
DIMSTYLE
  2
ISO-25
 70
     0
  3

  4

  5

  6

  7

 40
1.0
 41
2.5
 42
0.625
 43
3.75
 44
1.25
 45
0.0
 46
0.0
 47
0.0
 48
0.0
140
2.5
141
2.5
142
0.0
143
0.03937007874016
144
1.0
145
0.0
146
1.0
147
0.625
 71
     0
 72
     0
 73
     0
 74
     0
 75
     0
 76
     0
 77
     1
 78
     8
170
     0
171
     3
172
     1
173
     0
174
     0
175
     0
176
     0
177
     0
178
     0
  0
ENDTAB
  0
ENDSEC
  0
SECTION
  2
BLOCKS
  0
BLOCK
  8
0
  2
$MODEL_SPACE
 70
     0
 10
0.0
 20
0.0
 30
0.0
  3
$MODEL_SPACE
  1

  0
ENDBLK
  5
21
  8
0
  0
BLOCK
 67
     1
  8
0
  2
$PAPER_SPACE
 70
     0
 10
0.0
 20
0.0
 30
0.0
  3
$PAPER_SPACE
  1

  0
ENDBLK
  5
1D
 67
     1
  8
0
  0
ENDSEC
  0
SECTION
  2
ENTITIES
  0
LINE
  5
10000059
  8
VISIBLE
 10
-9.550429663759088
 20
-8.64158436555803
 30
0.0
 11
-12.95226060165979
 21
-2.718498708772455
 31
0.0
  0
LINE
  5
1000005D
  8
VISIBLE
 10
-9.550429663759088
 20
-13.90899282592764
 30
0.0
 11
-9.550429663759088
 21
-8.64158436555803
 31
0.0
  0
LINE
  5
10000061
  8
VISIBLE
 10
9.546447478192915
 20
-13.90899282592763
 30
0.0
 11
-9.550429663759088
 21
-13.90899282592764
 31
0.0
  0
LINE
  5
10000065
  8
VISIBLE
 10
9.546447478192915
 20
-8.64158436555803
 30
0.0
 11
9.546447478192915
 21
-13.90899282592763
 31
0.0
  0
LINE
  5
10000069
  8
VISIBLE
 10
12.94827841609374
 20
-2.718498708772455
 30
0.0
 11
9.546447478192915
 21
-8.64158436555803
 31
0.0
  0
LINE
  5
1000006D
  8
VISIBLE
 10
12.94827841609374
 20
35.02119583058734
 30
0.0
 11
12.94827841609374
 21
-2.718498708772455
 31
0.0
  0
LINE
  5
10000071
  8
VISIBLE
 10
-12.95226060165979
 20
35.02119583058773
 30
0.0
 11
12.94827841609374
 21
35.02119583058734
 31
0.0
  0
LINE
  5
10000075
  8
VISIBLE
 10
-12.95226060165979
 20
-2.718498708772455
 30
0.0
 11
-12.95226060165979
 21
35.02119583058773
 31
0.0
  0
LINE
  5
10000079
  8
VISIBLE
 10
-6.0504296637591
 20
-3.617740242656835
 30
0.0
 11
-6.0504296637591
 21
14.16595770109923
 31
0.0
  0
ARC
  5
1000007D
  8
VISIBLE
 10
-7.050429663759142
 20
-3.617740242656788
 30
0.0
 40
1.000000000000043
 50
270.0000000000008
 51
0.0
  0
LINE
  5
10000083
  8
VISIBLE
 10
-8.550429663759102
 20
-4.617740242656831
 30
0.0
 11
-7.050429663759128
 21
-4.617740242656831
 31
0.0
  0
ARC
  5
10000087
  8
VISIBLE
 10
-8.550429663759115
 20
-3.617740242656823
 30
0.0
 40
1.000000000000011
 50
180.0000000000007
 51
270.0000000000007
  0
LINE
  5
1000008D
  8
VISIBLE
 10
-9.55042966375913
 20
14.16595770109923
 30
0.0
 11
-9.55042966375913
 21
-3.617740242656835
 31
0.0
  0
ARC
  5
10000091
  8
VISIBLE
 10
-8.550429663759074
 20
14.16595770109918
 30
0.0
 40
1.000000000000059
 50
90.00000000000162
 51
179.9999999999971
  0
LINE
  5
10000097
  8
VISIBLE
 10
-7.050429663759128
 20
15.16595770109925
 30
0.0
 11
-8.550429663759102
 21
15.16595770109925
 31
0.0
  0
ARC
  5
1000009B
  8
VISIBLE
 10
-7.050429663759155
 20
14.16595770109918
 30
0.0
 40
1.000000000000059
 50
0.0
 51
89.99999999999842
  0
ARC
  5
100000A1
  8
VISIBLE
 10
-7.050429663759184
 20
18.55990899184304
 30
0.0
 40
1.000000000000092
 50
270.0000000000032
 51
0.0
  0
LINE
  5
100000A7
  8
VISIBLE
 10
-8.550429663759102
 20
17.55990899184295
 30
0.0
 11
-7.050429663759128
 21
17.55990899184295
 31
0.0
  0
ARC
  5
100000AB
  8
VISIBLE
 10
-8.550429663759045
 20
18.55990899184305
 30
0.0
 40
1.000000000000095
 50
180.0000000000047
 51
269.9999999999968
  0
LINE
  5
100000B1
  8
VISIBLE
 10
-9.55042966375913
 20
31.62990077793404
 30
0.0
 11
-9.550429663759138
 21
18.55990899184297
 31
0.0
  0
ARC
  5
100000B5
  8
VISIBLE
 10
-8.550429663759074
 20
31.62990077793399
 30
0.0
 40
1.00000000000006
 50
90.00000000000162
 51
179.9999999999971
  0
LINE
  5
100000BB
  8
VISIBLE
 10
-7.050429663759128
 20
32.62990077793405
 30
0.0
 11
-8.550429663759102
 21
32.62990077793405
 31
0.0
  0
ARC
  5
100000BF
  8
VISIBLE
 10
-7.050429663759155
 20
31.62990077793399
 30
0.0
 40
1.00000000000006
 50
0.0
 51
89.99999999999842
  0
LINE
  5
100000C5
  8
VISIBLE
 10
-6.0504296637591
 20
18.55990899184297
 30
0.0
 11
-6.0504296637591
 21
31.62990077793404
 31
0.0
  0
LINE
  5
100000C9
  8
VISIBLE
 10
8.54644747819297
 20
-4.617740242656831
 30
0.0
 11
7.046447478192913
 21
-4.617740242656833
 31
0.0
  0
ARC
  5
100000CD
  8
VISIBLE
 10
7.04644747819283
 20
-3.617740242656931
 30
0.0
 40
0.9999999999999167
 50
179.9999999999945
 51
270.0000000000048
  0
LINE
  5
100000D3
  8
VISIBLE
 10
6.046447478192898
 20
-3.617740242656835
 30
0.0
 11
6.046447478192898
 21
14.16595770109923
 31
0.0
  0
ARC
  5
100000D7
  8
VISIBLE
 10
7.046447478192844
 20
14.1659577010993
 30
0.0
 40
0.999999999999944
 50
89.99999999999604
 51
180.000000000004
  0
LINE
  5
100000DD
  8
VISIBLE
 10
7.046447478192913
 20
15.16595770109925
 30
0.0
 11
8.54644747819297
 21
15.16595770109925
 31
0.0
  0
ARC
  5
100000E1
  8
VISIBLE
 10
8.546447478192984
 20
14.16595770109926
 30
0.0
 40
0.9999999999999952
 50
0.0
 51
90.00000000000082
  0
LINE
  5
100000E7
  8
VISIBLE
 10
9.546447478192984
 20
14.16595770109923
 30
0.0
 11
9.546447478192915
 21
-3.617740242656835
 31
0.0
  0
ARC
  5
100000EB
  8
VISIBLE
 10
8.546447478192942
 20
-3.617740242656835
 30
0.0
 40
0.9999999999999845
 50
270.0000000000016
 51
0.0
  0
LINE
  5
100000F1
  8
VISIBLE
 10
7.046447478192913
 20
32.62990077793405
 30
0.0
 11
8.54644747819297
 21
32.62990077793406
 31
0.0
  0
ARC
  5
100000F5
  8
VISIBLE
 10
8.546447478192984
 20
31.62990077793407
 30
0.0
 40
0.9999999999999974
 50
0.0
 51
90.00000000000082
  0
LINE
  5
100000FB
  8
VISIBLE
 10
9.546447478192984
 20
31.62990077793404
 30
0.0
 11
9.546447478192901
 21
18.55990899184297
 31
0.0
  0
ARC
  5
100000FF
  8
VISIBLE
 10
8.546447478192928
 20
18.55990899184295
 30
0.0
 40
0.9999999999999809
 50
270.0000000000024
 51
0.0
  0
LINE
  5
10000105
  8
VISIBLE
 10
8.54644747819297
 20
17.55990899184295
 30
0.0
 11
7.046447478192913
 21
17.55990899184295
 31
0.0
  0
ARC
  5
10000109
  8
VISIBLE
 10
7.04644747819283
 20
18.55990899184287
 30
0.0
 40
0.9999999999999245
 50
179.9999999999943
 51
270.0000000000048
  0
LINE
  5
1000010F
  8
VISIBLE
 10
6.046447478192898
 20
18.55990899184297
 30
0.0
 11
6.046447478192898
 21
31.62990077793404
 31
0.0
  0
ARC
  5
10000113
  8
VISIBLE
 10
7.046447478192844
 20
31.62990077793409
 30
0.0
 40
0.9999999999999558
 50
89.99999999999604
 51
180.0000000000026
  0
ENDSEC
  0
EOF
